<?xml version="1.0" standalone="no"?>
<!DOCTYPE svg PUBLIC "-//W3C//DTD SVG 20010904//EN"
 "http://www.w3.org/TR/2001/REC-SVG-20010904/DTD/svg10.dtd">
<svg version="1.0" xmlns="http://www.w3.org/2000/svg"
 width="1251.000000pt" height="1251.000000pt" viewBox="0 0 1251.000000 1251.000000"
 preserveAspectRatio="xMidYMid meet">
<metadata>
Created by potrace 1.14, written by Peter Selinger 2001-2017
</metadata>
<g transform="translate(0.000000,1251.000000) scale(0.100000,-0.100000)"
fill="#000000" stroke="none">
<path d="M9967 9124 c-1 -1 -38 -4 -82 -8 -376 -30 -677 -159 -909 -389 -45
-45 -99 -104 -119 -132 -20 -27 -40 -55 -45 -60 -4 -6 -25 -40 -45 -77 -79
-143 -140 -323 -153 -452 -4 -33 -8 -68 -10 -76 -1 -8 -3 -103 -3 -210 l-1
-195 -237 0 -238 0 0 -480 0 -480 227 0 c124 0 229 -3 233 -7 4 -4 7 -576 7
-1272 l0 -1266 584 0 584 0 2 1272 3 1273 430 1 c237 1 433 2 436 3 3 0 6 215
6 476 0 426 -2 475 -16 476 -9 1 -203 3 -431 4 -228 1 -423 3 -432 4 -15 1
-17 15 -14 149 4 162 5 170 35 233 51 110 165 180 331 205 52 7 293 7 330 -1
14 -3 48 -8 75 -11 28 -3 89 -16 138 -29 48 -13 88 -23 88 -22 1 1 2 219 3
484 l1 483 -45 14 c-25 8 -72 20 -105 27 -33 7 -64 14 -70 15 -29 6 -75 15
-115 20 -25 3 -54 8 -65 10 -26 6 -373 22 -378 18z"/>
<path d="M2310 7606 c-273 -64 -459 -238 -530 -497 -87 -317 80 -672 377 -800
115 -50 175 -62 298 -60 304 3 572 213 652 511 24 90 24 275 0 350 -80 250
-231 404 -472 482 -77 25 -248 32 -325 14z"/>
<path d="M5132 7599 c-114 -22 -225 -57 -327 -104 -82 -37 -228 -122 -260
-152 -11 -10 -32 -26 -46 -35 -51 -32 -192 -173 -268 -268 -190 -236 -332
-550 -385 -855 -3 -16 -8 -39 -10 -51 -23 -116 -38 -468 -23 -559 3 -16 9 -59
12 -95 4 -36 9 -74 11 -85 3 -11 7 -36 10 -55 20 -125 87 -326 159 -478 88
-184 196 -340 331 -477 72 -73 225 -205 238 -205 3 0 25 -14 50 -31 293 -197
688 -270 1031 -189 133 31 147 35 247 79 196 86 385 236 511 404 l51 69 13
-57 c7 -31 15 -66 17 -78 2 -12 11 -49 19 -82 9 -33 18 -73 21 -90 3 -16 13
-65 22 -107 l17 -78 497 0 498 0 0 1749 c0 1308 -3 1751 -12 1753 -6 2 -229 4
-496 4 l-485 -1 -12 -55 c-28 -121 -54 -235 -74 -322 -11 -51 -24 -97 -30
-102 -6 -6 -9 -6 -9 1 0 17 -79 113 -160 193 -170 170 -373 284 -602 339 -128
31 -142 32 -308 35 -118 3 -177 -1 -248 -15z m711 -1034 c101 -21 208 -70 287
-134 63 -51 95 -86 146 -164 100 -149 139 -290 139 -497 0 -121 -9 -187 -36
-275 -74 -242 -233 -416 -449 -490 -70 -25 -116 -30 -240 -29 -95 1 -129 6
-195 27 -187 62 -333 190 -419 372 -46 97 -62 142 -71 210 -4 22 -9 48 -12 59
-11 38 -3 235 12 311 67 325 287 557 580 610 69 12 197 12 258 0z"/>
<path d="M2408 5315 c-1 -2 -25 -5 -53 -9 -78 -8 -105 -15 -176 -45 -253 -106
-421 -356 -422 -626 0 -128 26 -228 88 -342 182 -331 607 -448 940 -259 127
72 252 220 303 356 89 244 26 536 -158 721 -95 96 -245 175 -370 194 -48 7
-148 14 -152 10z"/>
</g>
</svg>
